<svg xmlns="http://www.w3.org/2000/svg" xmlns:xlink="http://www.w3.org/1999/xlink" width="1200.378" height="587.751" viewBox="0 0 1200.378 587.751">
  <defs>
    <style>
      .cls-1 {
        fill: #ffffff;
      }

      .cls-2 {
        clip-path: url(#clip-path);
      }
    </style>
    <clipPath id="clip-path">
      <path id="Path_3" data-name="Path 3" class="cls-1" d="M0,81.443H1200.378V-506.308H0Z" transform="translate(0 506.308)"/>
    </clipPath>
  </defs>
  <g id="Group_288" data-name="Group 288" transform="translate(0 506.308)">
    <g id="Group_3" data-name="Group 3" class="cls-2" transform="translate(0 -506.308)">
      <g id="Group_1" data-name="Group 1" transform="translate(1.284 303.947)">
        <path id="Path_1" data-name="Path 1" class="cls-1" d="M10.635,19.5h7.634c12.071,0,23.787,15.062,23.787,63.024,0,34.88-4.438,61.041-22.545,61.041-7.988,0-8.875-1.982-8.875-27.747Zm0-109.8c0-6.738,1.243-11.891,6.745-11.891,2.663,0,7.988.4,11.539,7.53,5.5,10.7,7.1,28.54,7.1,47.169C36.02-3.1,26.434,5.625,17.559,5.625H10.635ZM-37.471,157.437H12.765c4.794,0,14.2,0,20.06-1.19,24.32-4.756,43.668-22.99,43.668-76.9,0-24.575-9.231-47.169-17.929-55.888-6.035-5.946-12.249-10.7-18.64-12.288v-.793c3.2-1.19,6.747-3.171,11.716-8.325,10.3-10.7,17.4-28.936,17.4-55.1,0-25.765-4.438-36.467-9.409-45.98C51.286-115.269,36.2-116.062,19.51-116.062H-37.471v9.513c11.006.793,15.089,2.774,15.089,34.88V113.043c0,32.107-4.083,34.089-15.089,34.881Zm114.849,0h63.2v-9.513c-11.006-.793-15.089-2.774-15.089-34.881V-71.668c0-32.106,4.083-34.087,15.089-34.88v-9.513h-63.2v9.513c11.006.793,15.089,2.774,15.089,34.88V113.043c0,32.107-4.083,34.089-15.089,34.881Zm61.064,0H246.369l6.924-82.842-4.261-2.379c-.71,5.946-3.905,24.178-9.052,37.656-11.893,31.313-20.947,31.71-39.231,31.71-13.49,0-14.2-5.153-14.2-34.089V20.687c19.526,0,26.094,20.215,28.4,60.646h4.26V-53.831h-4.26c-2.308,40.43-8.876,60.646-28.4,60.646V-79.6c0-19.818,2.307-20.611,11-20.611h11.362c21.656,0,30,21.008,31.952,61.438h4.26v-77.293H138.441v9.513c11,.793,15.089,2.774,15.089,34.88V113.043c0,32.107-4.084,34.089-15.089,34.881Zm114.849,0h43.668v-9.513c-11.716.4-19.527-4.36-19.527-37.656V-58.588l90.177,216.7h4.261v-227c0-24.18,3.727-36.467,13.491-37.656v-9.513H344.887v9.513c10.828,0,18.461,4.36,18.461,37.656V47.245l-65.5-163.307H253.29v9.513c5.68.4,7.455.4,15.62,24.971v190.26c0,24.972-3.905,38.053-15.62,39.242Zm127.454,0h43.668v-9.513c-11.716.4-19.526-4.36-19.526-37.656V-58.588l90.176,216.7h4.261v-227c0-24.18,3.727-36.467,13.49-37.656v-9.513H472.342v9.513c10.828,0,18.461,4.36,18.461,37.656V47.245L425.3-116.062H380.745v9.513c5.681.4,7.455.4,15.622,24.971v190.26c0,24.972-3.905,38.053-15.622,39.242Zm127.454,0h63.2v-9.513c-11.006-.793-15.089-2.774-15.089-34.881V-71.668c0-32.106,4.083-34.087,15.089-34.88v-9.513H508.2v9.513c11.006.793,15.089,2.774,15.089,34.88V113.043c0,32.107-4.083,34.089-15.089,34.881Zm59.466,0h41.894v-9.513c-7.455,0-15.976-2.379-15.976-23.387,0-10.7,4.26-35.277,6.568-45.582h44.555l2.308,11.495c1.6,7.53,7.1,32.5,7.1,41.619,0,7.135-2.13,12.288-4.437,13.873-2.13,1.585-5.681,1.982-9.763,1.982v9.513h67.455v-9.513c-6.568,0-11.361-7.927-14.733-20.215s-6.391-27.747-10.829-48.358l-44.022-195.3h-6.035l-44.556,217.5c-5.5,27.35-6.745,42.809-19.527,46.376ZM603.345,63.1l18.107-92.355L640.8,63.1ZM706.48,157.437H808.727L815.3,67.856l-4.261-3.171c-5.5,44.395-17.04,76.9-38.343,76.9-15.089,0-18.106-3.171-18.106-26.954v-186.3c0-32.106,4.082-34.087,15.089-34.88v-9.513h-63.2v9.513c11.006.793,15.089,2.774,15.089,34.88V113.043c0,32.107-4.083,34.089-15.089,34.881Zm137.927,0h75.266l9.231-87.2h-4.438c-3.905,24.971-6.745,29.331-18.106,29.331h-33.9c-.888,0-1.243-1.189-1.243-2.379a10.927,10.927,0,0,1,1.6-4.756l25.74-52.322C910.8,15.138,921.8-10.626,921.8-50.263c0-42.412-14.2-70.952-32.839-70.952-23.255,0-34.971,34.089-42.96,78.482l4.084,5.55c4.792-21.008,11.005-36.863,22.367-36.863,13.668,0,21.656,20.611,21.656,50.339,0,34.089-14.2,75.708-23.431,100.679l-26.272,71.744ZM953.755-36.787c0-47.565.354-72.933,11-72.933s11.006,25.368,11.006,72.933V78.162c0,47.565-.354,72.933-11.006,72.933s-11-25.368-11-72.933ZM924.287,20.687c0,58.664,11.539,141.9,40.473,141.9s40.474-83.239,40.474-141.9-11.539-141.9-40.474-141.9-40.473,83.239-40.473,141.9m76.331,136.75h75.266l9.231-87.2h-4.438c-3.905,24.971-6.745,29.331-18.106,29.331h-33.906c-.887,0-1.242-1.189-1.242-2.379a10.929,10.929,0,0,1,1.6-4.756l25.74-52.322c12.249-24.971,23.254-50.735,23.254-90.373,0-42.412-14.2-70.952-32.84-70.952-23.254,0-34.97,34.089-42.958,78.482l4.084,5.55c4.792-21.008,11-36.863,22.365-36.863,13.669,0,21.657,20.611,21.657,50.339,0,34.089-14.2,75.708-23.431,100.679l-26.272,71.744ZM1102.333,19.894c10.118.793,21.834,13.081,29.822,36.07,5.5,15.855,6.746,26.161,6.746,46.376,0,24.179-7.811,39.242-15.267,39.242-2.84,0-5.5-.793-7.81-4.36-10.473-16.252-14.379-35.277-24.675-35.277-6.391,0-10.828,9.512-10.828,23.782,0,25.368,14.2,36.863,23.608,36.863,14.025,0,28.225-8.72,37.1-23.782,10.3-17.441,20.591-40.43,20.591-79.276,0-37.655-7.988-63.816-24.142-74.122v-3.17c9.942-8.72,16.332-28.143,16.332-52.322,0-33.3-14.733-51.132-28.225-51.132-20.414,0-34.082,19.819-42.248,59.853l3.906,5.153c4.971-19.819,11.36-30.521,21.657-30.521,10.473,0,17.219,19.819,17.219,41.62,0,32.9-9.585,51.925-23.787,55.492Z" transform="translate(37.471 121.215)"/>
      </g>
      <g id="Group_2" data-name="Group 2" transform="translate(0 0)">
        <path id="Path_2" data-name="Path 2" class="cls-1" d="M0,41.1H74.069V31.046c-12.9-.838-17.685-2.932-17.685-36.867V-87.094H68.659c13.732,0,26.216-4.607,35.163-14.663,11.859-13.406,20.806-35.609,20.806-69.961,0-28.487-5.618-47.758-17.685-62.42-10.611-12.987-28.089-13.825-46.19-13.825H0v10.054c12.9.838,17.685,2.932,17.685,36.865V-5.821C17.685,28.113,12.9,30.207,0,31.046ZM56.384-212.354c0-15.082,2.08-18.852,9.571-18.852,17.893,0,19.972,31.839,19.972,61.583,0,42.312-4.577,65.772-26.006,65.772H56.384ZM128.469,41.1h126.5l8.114-87.556-4.993-2.514c-.833,6.285-4.578,25.555-10.612,39.8-13.94,33.1-24.551,33.515-45.98,33.515-15.813,0-16.645-5.447-16.645-36.028v-91.746c22.887,0,30.585,21.366,33.29,64.1h4.993V-182.191h-4.993c-2.705,42.731-10.4,64.1-33.29,64.1v-91.327c0-20.947,2.705-21.785,12.9-21.785h13.316c25.383,0,35.161,22.2,37.45,64.935h4.993v-81.692H128.469v10.054c12.9.838,17.685,2.932,17.685,36.865V-5.821c0,33.934-4.785,36.028-17.685,36.867Zm139.911,0h74.068V31.046c-12.9-.838-17.685-2.932-17.685-36.867V-94.635h6.242L370.953,41.1h48.269V31.046c-2.913,0-4.993-1.257-8.322-8.8S403.2,1.3,395.3-23.416l-25.174-79.177c16.437-9.217,33.08-33.934,33.08-71.638,0-37.286-13.94-60.745-30.793-68.705-9.779-4.607-33.706-5.026-56.8-5.026H268.38v10.054c12.9.838,17.685,2.932,17.685,36.865V-5.821c0,33.934-4.786,36.028-17.685,36.867Zm56.383-251.778c0-15.5.833-22.622,11.444-22.622,17.685,0,26.63,26.392,26.63,61.163,0,45.664-14.772,62.841-33.7,62.841h-4.37ZM417.864,41.1h79.479V31.046c-17.269-.838-23.095-7.122-23.095-36.447v-98.03c22.887,0,30.585,21.366,33.29,64.1h4.993V-182.191h-4.993c-2.7,42.731-10.4,64.1-33.29,64.1v-93.422c0-14.662,1.664-19.689,8.322-19.689h8.115c26.632,0,38.906,12.987,44.108,64.935h4.993l-1.664-81.692H417.864v10.054c12.9.838,17.685,2.932,17.685,36.865V-5.821c0,33.934-4.785,36.028-17.685,36.867Zm165.3-140.761c0-46.083.416-141.18,33.5-141.18s33.5,95.1,33.5,141.18c0,47.758-.416,133.639-33.5,133.639s-33.5-85.881-33.5-133.639m-41.819-3.77c0,86.718,31,152.072,75.317,152.072s75.318-65.354,75.318-152.072-31-152.072-75.318-152.072S541.34-190.151,541.34-103.432M699.56,41.1h74.069V31.046c-12.9-.838-17.685-2.932-17.685-36.867V-94.635h6.241L802.132,41.1H850.4V31.046c-2.912,0-4.993-1.257-8.322-8.8s-7.7-20.947-15.6-45.663L801.3-102.594c16.437-9.217,33.082-33.934,33.082-71.638,0-37.286-13.94-60.745-30.793-68.705-9.779-4.607-33.706-5.026-56.8-5.026H699.56v10.054c12.9.838,17.685,2.932,17.685,36.865V-5.821c0,33.934-4.785,36.028-17.685,36.867Zm56.384-251.778c0-15.5.832-22.622,11.443-22.622,17.685,0,26.632,26.392,26.632,61.163,0,45.664-14.773,62.841-33.706,62.841h-4.369ZM848.627,41.1h45.566V31.046c-17.893,0-19.558-14.663-19.558-46.921V-211.935h.416L923.53,41.1H930.4l51.6-253.034h.416V-5.821c0,33.934-4.785,36.028-17.685,36.867V41.1h71.988V31.046c-12.9-.838-17.685-2.932-17.685-36.867V-201.043c0-33.933,4.785-36.027,17.685-36.865v-10.054H979.289L941.838-62.377,906.469-247.963H848.627v10.054c10.4.838,16.021,3.351,16.021,32.258V-22.578c0,49.015-5.826,53.624-16.021,53.624Zm186.725,0h49.1V31.046c-8.739,0-18.725-2.513-18.725-24.717,0-11.311,4.993-37.286,7.7-48.178h52.222l2.705,12.15c1.873,7.96,8.323,34.352,8.323,43.988,0,7.54-2.5,12.987-5.2,14.662-2.5,1.676-6.658,2.1-11.443,2.1V41.1h79.062V31.046c-7.7,0-13.316-8.379-17.269-21.366s-7.49-29.326-12.692-51.11L1117.3-248.809h-7.074l-51.987,230.84c-6.45,28.906-7.906,45.244-22.885,49.015Zm41.819-99.706,21.222-97.611,22.679,97.611Z" transform="translate(0 255.504)"/>
      </g>
    </g>
  </g>
</svg>
